Coordinates
version=1
nRows=12
nColumns=33
inDegrees=yes

Units are S.I. units (second, meters, Newtons, ...)
Angles are in degrees.

endheader
time	ground_thorax_rot_x	ground_thorax_rot_y	ground_thorax_rot_z	ground_thorax_tx	ground_thorax_ty	ground_thorax_tz	clav_prot_r	clav_elev_r	scapula_abduction_r	scapula_elevation_r	scapula_upward_rot_r	scapula_winging_r	shoulder_elv_r	plane_of_elev_r	axial_rot_r	elbow_flexion_r	pro_sup_r	wrist_flex_r	wrist_dev_r	clav_prot_l	clav_elev_l	scapula_abduction_l	scapula_elevation_l	scapula_upward_rot_l	scapula_winging_l	shoulder_elv_l	plane_of_elev_l	axial_rot_l	elbow_flexion_l	pro_sup_l	wrist_flex_l	wrist_dev_l
     11.14000000	     26.78266585	     31.06295686	     44.01959056	    -78.51557349	    777.01633133	      7.31782590	     13.97852428	     36.15919953	     33.42780214	     45.00000000	    -45.00000000	  -2237.66921607	  -2272.49328608	    145.40251643	    179.99999979	   1086.54761961	   -303.41662840	     23.07987129	     13.54075743	      6.54845641	    -45.00000000	    -36.10576015	     45.00000000	    -45.00000000	   2252.73944517	  -4780.62619167	    141.20581817	    142.62838851	    368.47659877	     25.08453654	      8.80895013	    -19.48626532
     11.15000000	     27.05292200	     31.00740663	     43.62230117	    -80.31127192	    777.08604303	      7.23486634	     14.00047690	     36.13521795	     33.48327276	     45.00000000	    -45.00000000	  -2237.81526009	  -2272.29824832	    145.27937020	    179.99999979	   1086.66253408	   -303.46866018	     23.10080412	     13.51701214	      6.54765198	    -45.00000000	    -36.12716732	     45.00000000	    -45.00000000	   2252.84330805	  -4780.52532025	    141.12258907	    142.73138412	    368.62606117	     24.98044685	      8.77922942	    -19.54332500
     11.16000000	     27.20246364	     30.97572090	     43.33335411	    -82.13587385	    777.18885794	      7.15490475	     13.99959744	     36.22025046	     33.61366580	     45.00000000	    -45.00000000	  -2237.94430059	  -2272.23942136	    145.32436148	    179.99999979	   1086.78220522	   -303.54440083	     23.16477596	     13.48807500	      6.55951273	    -45.00000000	    -36.11580538	     45.00000000	    -45.00000000	   2252.91515149	  -4780.33400008	    141.07105821	    142.95205669	    368.81189488	     24.84148672	      8.67419949	    -19.58727134
     11.17000000	     27.46226641	     30.94086649	     42.85447797	    -83.98302957	    777.32517750	      7.07602388	     14.03882556	     36.15551706	     33.62391834	     45.00000000	    -45.00000000	  -2238.06318008	  -2272.05606579	    145.19626778	    179.99999979	   1086.81819336	   -303.61576102	     23.16294733	     13.48883346	      6.58605280	    -45.00000000	    -36.19375728	     45.00000000	    -45.00000000	   2252.94088966	  -4780.23080394	    140.90433556	    143.08733117	    368.89011824	     24.71299824	      8.67637461	    -19.61783840
     11.18000000	     27.66021700	     30.84140187	     42.55475356	    -85.84342096	    777.49512144	      6.99667966	     14.00581315	     36.22089013	     33.84829994	     45.00000000	    -45.00000000	  -2238.19153876	  -2271.99938002	    145.21985679	    179.99999979	   1086.91834613	   -303.72562433	     23.23894692	     13.47408724	      6.56377755	    -45.00000000	    -36.27613098	     45.00000000	    -45.00000000	   2253.08342836	  -4780.04428977	    140.91167410	    143.27217584	    369.05432111	     24.53095154	      8.59875405	    -19.65406248
     11.19000000	     27.83710105	     30.85683886	     42.17649989	    -87.71432683	    777.69948125	      6.91619648	     14.07634099	     36.26203985	     33.73550806	     45.00000000	    -45.00000000	  -2238.26562205	  -2271.80325995	    145.11222421	    179.99999979	   1086.98902536	   -303.83809941	     23.21402098	     13.47225690	      6.61587955	    -45.00000000	    -36.11786005	     45.00000000	    -45.00000000	   2253.05869800	  -4779.87095289	    140.76314425	    143.65181428	    369.10360836	     24.27687704	      8.55546894	    -19.64282350
     11.20000000	     28.13673838	     30.76745440	     41.66453289	    -89.58970431	    777.93917325	      6.83508585	     14.01920856	     36.14948783	     34.04719062	     45.00000000	    -45.00000000	  -2238.51317238	  -2271.82160045	    145.12895779	    179.99999979	   1087.04130028	   -303.98027516	     23.29504788	     13.47941850	      6.59728784	    -45.00000000	    -36.39141305	     45.00000000	    -45.00000000	   2253.20476638	  -4779.77160231	    140.57026665	    143.85432465	    369.25844893	     23.97743758	      8.57565179	    -19.68180682
     11.21000000	     28.28497345	     30.66613225	     41.42695023	    -91.46818508	    778.21549105	      6.75523776	     14.11706911	     36.37955694	     33.85289306	     45.00000000	    -45.00000000	  -2238.45197780	  -2271.45753879	    144.93255181	    179.99999979	   1087.19305558	   -304.13376724	     23.25500417	     13.46955974	      6.58874256	    -45.00000000	    -36.17806572	     45.00000000	    -45.00000000	   2253.22102876	  -4779.49751719	    140.61049196	    144.29268158	    369.32552478	     23.58870680	      8.52932410	    -19.67125060
     11.22000000	     28.42257816	     30.68369546	     41.17023632	    -93.34775107	    778.52937695	      6.67954274	     14.11458541	     36.22757447	     34.12393490	     45.00000000	    -45.00000000	  -2238.63538749	  -2271.54643905	    145.08044193	    179.99999979	   1087.18101034	   -304.31470139	     23.26116976	     13.46568991	      6.69901481	    -45.00000000	    -36.21057894	     45.00000000	    -45.00000000	   2253.26104849	  -4779.46419299	    140.52467406	    144.88487063	    369.22160548	     23.06008428	      8.57196706	    -19.62471824
     11.23000000	     28.77985841	     30.53730034	     40.58755467	    -95.22122969	    778.88096732	      6.61175387	     14.05686114	     36.29028997	     34.22093214	     45.00000000	    -45.00000000	  -2238.75752814	  -2271.36889729	    144.92831849	    179.99999979	   1087.26930912	   -304.48156611	     23.29689405	     13.49976933	      6.66514100	    -45.00000000	    -36.25519847	     45.00000000	    -45.00000000	   2253.30416393	  -4779.29719168	    140.28323035	    145.32844384	    369.25064206	     22.48957682	      8.59586157	    -19.62166295
     11.24000000	     28.93977457	     30.47737540	     40.23950950	    -97.09360812	    779.27138071	      6.55483165	     14.13607467	     36.27357775	     34.26490608	     45.00000000	    -45.00000000	  -2238.89673421	  -2271.28076872	    144.90739140	    179.99999979	   1087.36720664	   -304.65867437	     23.29354138	     13.47899882	      6.64240563	    -45.00000000	    -36.35358824	     45.00000000	    -45.00000000	   2253.38337344	  -4779.08447535	    140.16093682	    145.78662274	    369.37601001	     21.87772372	      8.65761213	    -19.64070947
     11.25000000	     29.19305089	     30.36858464	     39.79889720	    -98.95909607	    779.70024339	      6.51133315	     14.08855699	     36.28544733	     34.36547771	     45.00000000	    -45.00000000	  -2239.03212599	  -2271.13381646	    144.85625339	    179.99999979	   1087.46774255	   -304.82424275	     23.31648311	     13.49114395	      6.66571478	    -45.00000000	    -36.34331887	     45.00000000	    -45.00000000	   2253.42242083	  -4778.89259011	    139.96983147	    146.34491667	    369.41167411	     21.22932595	      8.67175455	    -19.63865106
